<svg id="레이어_1" data-name="레이어 1" xmlns="http://www.w3.org/2000/svg" viewBox="0 0 71.02 88"><defs><style>.cls-1{fill:#fff;}</style></defs><path class="cls-1" d="M36,22H30V99h6Z" transform="translate(-30 -16)"/><path class="cls-1" d="M96.37,37.75A36.94,36.94,0,0,0,82.49,21.89Q73.25,16,59.25,16H30v6H59.05q11.46,0,19.37,4.92A31.87,31.87,0,0,1,90.51,40.56a45.41,45.41,0,0,1,4.17,19.82A46.34,46.34,0,0,1,90.63,80a32,32,0,0,1-12,13.89Q70.63,99,59.05,99H30v5H59.25Q72,104,81.44,98.55a36.78,36.78,0,0,0,14.5-15.37Q101,73.26,101,59.88A51.75,51.75,0,0,0,96.37,37.75Z" transform="translate(-30 -16)"/></svg>