<svg id="레이어_1" data-name="레이어 1" xmlns="http://www.w3.org/2000/svg" viewBox="0 0 44.47 88.66"><defs><style>.cls-1{fill:#fff;}</style></defs><path class="cls-1" d="M27.41,98.12a28.59,28.59,0,0,0,16.24,4.71q6.7,0,10.76-2.39a14.86,14.86,0,0,0,6.12-7.19,40.3,40.3,0,0,0,2.76-11.74,160.54,160.54,0,0,0,.71-16V20h6V64.39a166.38,166.38,0,0,1-.88,18,48.64,48.64,0,0,1-3.47,14.08,19.26,19.26,0,0,1-7.83,9.11q-5.24,3.14-13.94,3.13a34.89,34.89,0,0,1-10.11-1.36,27.64,27.64,0,0,1-8.24-4.1Z" transform="translate(-25.53 -20)"/></svg>