<svg id="레이어_1" data-name="레이어 1" xmlns="http://www.w3.org/2000/svg" viewBox="0 0 82.46 89.28"><defs><style>.cls-1{fill:#fff;}</style></defs><path class="cls-1" d="M64.1,104.14a36.9,36.9,0,0,1-16.74-3.78,41.56,41.56,0,0,1-13-10.11A47.12,47.12,0,0,1,26,42.7a45.89,45.89,0,0,1,8.75-14.26,42.86,42.86,0,0,1,13.14-9.92,36.7,36.7,0,0,1,16.31-3.66A36.2,36.2,0,0,1,81,18.71,41.75,41.75,0,0,1,94,29a48.71,48.71,0,0,1,8.43,14.38,45.68,45.68,0,0,1,3,16.12,46.37,46.37,0,0,1-3.1,16.93,45.86,45.86,0,0,1-8.74,14.26,42.05,42.05,0,0,1-13.14,9.86A37.2,37.2,0,0,1,64.1,104.14ZM29.26,59.5a41.52,41.52,0,0,0,9.86,26.91,35.13,35.13,0,0,0,11,8.68,30.79,30.79,0,0,0,14.08,3.22A30.52,30.52,0,0,0,78.49,95a35.25,35.25,0,0,0,11-8.93,40.74,40.74,0,0,0,7-12.46A42.24,42.24,0,0,0,99,59.5,41.78,41.78,0,0,0,96.4,45a39.71,39.71,0,0,0-7.25-12.4,36,36,0,0,0-11.1-8.68,30.34,30.34,0,0,0-13.82-3.22A30.77,30.77,0,0,0,49.84,24a34.23,34.23,0,0,0-11,8.93A43.43,43.43,0,0,0,31.8,45.43,40.2,40.2,0,0,0,29.26,59.5Z" transform="translate(-22.93 -14.86)"/></svg>