<svg id="레이어_1" data-name="레이어 1" xmlns="http://www.w3.org/2000/svg" viewBox="0 0 56.09 55"><defs><style>.cls-1{fill:#fff;}</style></defs><path class="cls-1" d="M93.16,37.42a29.46,29.46,0,0,0-5.41-8.77,27.46,27.46,0,0,0-8.15-6.29A22.45,22.45,0,0,0,69.33,20H39v6H68.1a17.74,17.74,0,0,1,9.6,2.68A22.24,22.24,0,0,1,87.79,47.44a25.2,25.2,0,0,1-2.22,10.47,19.83,19.83,0,0,1-6.4,8,16.42,16.42,0,0,1-10,3.08H39v6H70.08a21.92,21.92,0,0,0,13.13-4,28,28,0,0,0,8.71-10.27,29.34,29.34,0,0,0,3.17-13.37A26.66,26.66,0,0,0,93.16,37.42Z" transform="translate(-39 -20)"/></svg>