<svg id="레이어_1" data-name="레이어 1" xmlns="http://www.w3.org/2000/svg" viewBox="0 0 56.22 88"><defs><style>.cls-1{fill:#fff;}</style></defs><path class="cls-1" d="M73,72c4.13-.58,9.27-3.36,12.37-5.92a26.45,26.45,0,0,0,7.25-9.54,29.26,29.26,0,0,0,2.6-12.27,26.64,26.64,0,0,0-1.92-9.92A30.26,30.26,0,0,0,88,25.61a26.78,26.78,0,0,0-8.06-6.26A22.7,22.7,0,0,0,69.56,17H39v6H69.82a16.85,16.85,0,0,1,9.79,3,22.35,22.35,0,0,1,7,7.88,21.68,21.68,0,0,1,2.65,10.54A24.63,24.63,0,0,1,87,54.91a20.3,20.3,0,0,1-6.46,8A16.23,16.23,0,0,1,70.68,66H39v6H66.06l20.23,33H93Z" transform="translate(-39 -17)"/></svg>