<svg id="레이어_1" data-name="레이어 1" xmlns="http://www.w3.org/2000/svg" viewBox="0 0 66.34 89.28"><defs><style>.cls-1{fill:#fff;}</style></defs><path class="cls-1" d="M81.22,32.11A26.59,26.59,0,0,0,76.51,28a28.19,28.19,0,0,0-5.58-3,33.64,33.64,0,0,0-6.45-1.79A41.63,41.63,0,0,0,57,22.57q-12.9,0-18.78,4.89T32.37,40.64c0,3.72.88,6.67,2.66,8.86s4.57,3.94,8.37,5.26A119.66,119.66,0,0,0,58.16,58.6a108.15,108.15,0,0,1,16.49,4.64,25.32,25.32,0,0,1,10.73,7.24c2.52,3.06,3.78,7.18,3.78,12.39a22.38,22.38,0,0,1-2.23,10.21,19.07,19.07,0,0,1-6.45,7.24,31.89,31.89,0,0,1-10,4.34,51.58,51.58,0,0,1-12.84,1.48,55.16,55.16,0,0,1-13-1.49A49.89,49.89,0,0,1,33,100.31,45.26,45.26,0,0,1,22.82,93l3.35-5.09a33.31,33.31,0,0,0,6.13,5.27,39.8,39.8,0,0,0,7.44,3.91,49.4,49.4,0,0,0,8.62,2.54,48,48,0,0,0,9.55.93q11.53,0,18-4.27t6.51-12.68a14.32,14.32,0,0,0-3-9.42q-3-3.59-9.18-5.88A115.22,115.22,0,0,0,54.81,64,108.84,108.84,0,0,1,39,59.58a22,22,0,0,1-9.8-6.68q-3.28-4.21-3.28-11.4a22.64,22.64,0,0,1,3.9-13.43,24.16,24.16,0,0,1,11-8.36A43.14,43.14,0,0,1,57,16.86,47.29,47.29,0,0,1,67.64,18a34.29,34.29,0,0,1,9.06,3.41,37.12,37.12,0,0,1,7.75,5.76Z" transform="translate(-22.82 -16.86)"/></svg>